<?xml version="1.0" encoding="UTF-8" standalone="no"?>
<!DOCTYPE svg PUBLIC "-//W3C//DTD SVG 1.1//EN"
 "http://www.w3.org/Graphics/SVG/1.1/DTD/svg11.dtd">
<!-- Generated by graphviz version 12.2.0 (20241103.1931)
 -->
<!-- Pages: 1 -->
<svg width="274pt" height="657pt"
 viewBox="0.00 0.00 273.62 657.00" xmlns="http://www.w3.org/2000/svg" xmlns:xlink="http://www.w3.org/1999/xlink">
<g id="graph0" class="graph" transform="scale(1 1) rotate(0) translate(4 653)">
<polygon fill="white" stroke="none" points="-4,4 -4,-653 269.62,-653 269.62,4 -4,4"/>
<!-- Start -->
<g id="node1" class="node">
<title>Start</title>
<ellipse fill="lightgrey" stroke="black" cx="145.38" cy="-631" rx="96.39" ry="18"/>
<text text-anchor="middle" x="145.38" y="-625.95" font-family="Times,serif" font-size="14.00">Start Opportunity Scan</text>
</g>
<!-- FetchPrices -->
<g id="node2" class="node">
<title>FetchPrices</title>
<polygon fill="lightblue" stroke="black" points="218.62,-576 72.12,-576 72.12,-535 218.62,-535 218.62,-576"/>
<text text-anchor="middle" x="145.38" y="-558.7" font-family="Times,serif" font-size="14.00">Fetch Token Prices</text>
<text text-anchor="middle" x="145.38" y="-542.2" font-family="Times,serif" font-size="14.00">from PancakeSwap API</text>
</g>
<!-- Start&#45;&gt;FetchPrices -->
<g id="edge1" class="edge">
<title>Start&#45;&gt;FetchPrices</title>
<path fill="none" stroke="black" d="M145.38,-612.58C145.38,-605.2 145.38,-596.35 145.38,-587.9"/>
<polygon fill="black" stroke="black" points="148.88,-587.9 145.38,-577.9 141.88,-587.9 148.88,-587.9"/>
</g>
<!-- IdentifyOpportunity -->
<g id="node3" class="node">
<title>IdentifyOpportunity</title>
<polygon fill="lightyellow" stroke="black" points="145.38,-498 31.88,-457 145.37,-416 258.88,-457 145.38,-498"/>
<text text-anchor="middle" x="145.38" y="-460.2" font-family="Times,serif" font-size="14.00">Identify Arbitrage</text>
<text text-anchor="middle" x="145.38" y="-443.7" font-family="Times,serif" font-size="14.00">Opportunities</text>
</g>
<!-- FetchPrices&#45;&gt;IdentifyOpportunity -->
<g id="edge2" class="edge">
<title>FetchPrices&#45;&gt;IdentifyOpportunity</title>
<path fill="none" stroke="black" d="M145.38,-534.51C145.38,-527.13 145.38,-518.39 145.38,-509.51"/>
<polygon fill="black" stroke="black" points="148.88,-509.79 145.38,-499.79 141.88,-509.79 148.88,-509.79"/>
</g>
<!-- InitiateFlashLoan -->
<g id="node4" class="node">
<title>InitiateFlashLoan</title>
<polygon fill="lightgreen" stroke="black" points="155.75,-363.5 37,-363.5 37,-322.5 155.75,-322.5 155.75,-363.5"/>
<text text-anchor="middle" x="96.38" y="-346.2" font-family="Times,serif" font-size="14.00">Initiate Flash Loan</text>
<text text-anchor="middle" x="96.38" y="-329.7" font-family="Times,serif" font-size="14.00">from AAVE</text>
</g>
<!-- IdentifyOpportunity&#45;&gt;InitiateFlashLoan -->
<g id="edge3" class="edge">
<title>IdentifyOpportunity&#45;&gt;InitiateFlashLoan</title>
<path fill="none" stroke="black" d="M130.14,-421.18C123.56,-406.13 115.93,-388.7 109.59,-374.21"/>
<polygon fill="black" stroke="black" points="112.86,-372.94 105.64,-365.18 106.44,-375.74 112.86,-372.94"/>
<text text-anchor="middle" x="146.03" y="-384.7" font-family="Times,serif" font-size="14.00">Profitable</text>
</g>
<!-- End -->
<g id="node8" class="node">
<title>End</title>
<ellipse fill="lightgrey" stroke="black" cx="142.38" cy="-18" rx="56.47" ry="18"/>
<text text-anchor="middle" x="142.38" y="-12.95" font-family="Times,serif" font-size="14.00">End Process</text>
</g>
<!-- IdentifyOpportunity&#45;&gt;End -->
<g id="edge4" class="edge">
<title>IdentifyOpportunity&#45;&gt;End</title>
<path fill="none" stroke="black" stroke-dasharray="5,2" d="M165.36,-422.95C176.59,-401.29 188.38,-371.91 188.38,-344 188.38,-344 188.38,-344 188.38,-92.5 188.38,-74.4 178.23,-57.08 167.46,-43.81"/>
<polygon fill="black" stroke="black" points="170.24,-41.68 161.02,-36.45 164.97,-46.28 170.24,-41.68"/>
<text text-anchor="middle" x="227" y="-213.2" font-family="Times,serif" font-size="14.00">Not Profitable</text>
</g>
<!-- FirstSwap -->
<g id="node5" class="node">
<title>FirstSwap</title>
<polygon fill="lightblue" stroke="black" points="160,-285.5 0.75,-285.5 0.75,-244.5 160,-244.5 160,-285.5"/>
<text text-anchor="middle" x="80.38" y="-268.2" font-family="Times,serif" font-size="14.00">Swap Token A to Token B</text>
<text text-anchor="middle" x="80.38" y="-251.7" font-family="Times,serif" font-size="14.00">on PancakeSwap</text>
</g>
<!-- InitiateFlashLoan&#45;&gt;FirstSwap -->
<g id="edge5" class="edge">
<title>InitiateFlashLoan&#45;&gt;FirstSwap</title>
<path fill="none" stroke="black" d="M92.17,-322.03C90.55,-314.35 88.67,-305.39 86.88,-296.92"/>
<polygon fill="black" stroke="black" points="90.35,-296.38 84.86,-287.32 83.5,-297.82 90.35,-296.38"/>
</g>
<!-- SecondSwap -->
<g id="node6" class="node">
<title>SecondSwap</title>
<polygon fill="lightblue" stroke="black" points="160.75,-192 0,-192 0,-151 160.75,-151 160.75,-192"/>
<text text-anchor="middle" x="80.38" y="-174.7" font-family="Times,serif" font-size="14.00">Swap Token B to Token A</text>
<text text-anchor="middle" x="80.38" y="-158.2" font-family="Times,serif" font-size="14.00">on PancakeSwap</text>
</g>
<!-- FirstSwap&#45;&gt;SecondSwap -->
<g id="edge6" class="edge">
<title>FirstSwap&#45;&gt;SecondSwap</title>
<path fill="none" stroke="black" d="M80.38,-244.15C80.38,-232.28 80.38,-216.94 80.38,-203.5"/>
<polygon fill="black" stroke="black" points="83.88,-203.83 80.38,-193.83 76.88,-203.83 83.88,-203.83"/>
</g>
<!-- RepayLoan -->
<g id="node7" class="node">
<title>RepayLoan</title>
<polygon fill="lightgreen" stroke="black" points="154.88,-114 39.88,-114 39.88,-73 154.88,-73 154.88,-114"/>
<text text-anchor="middle" x="97.38" y="-96.7" font-family="Times,serif" font-size="14.00">Repay Flash Loan</text>
<text text-anchor="middle" x="97.38" y="-80.2" font-family="Times,serif" font-size="14.00">and Retain Profit</text>
</g>
<!-- SecondSwap&#45;&gt;RepayLoan -->
<g id="edge7" class="edge">
<title>SecondSwap&#45;&gt;RepayLoan</title>
<path fill="none" stroke="black" d="M84.84,-150.53C86.56,-142.85 88.56,-133.89 90.46,-125.42"/>
<polygon fill="black" stroke="black" points="93.84,-126.33 92.61,-115.81 87.01,-124.81 93.84,-126.33"/>
</g>
<!-- RepayLoan&#45;&gt;End -->
<g id="edge8" class="edge">
<title>RepayLoan&#45;&gt;End</title>
<path fill="none" stroke="black" d="M109.43,-72.8C114.58,-64.4 120.66,-54.47 126.19,-45.44"/>
<polygon fill="black" stroke="black" points="129.09,-47.41 131.32,-37.05 123.12,-43.75 129.09,-47.41"/>
</g>
</g>
</svg>
