<?xml version="1.0" encoding="UTF-8" standalone="no"?>
<!DOCTYPE svg PUBLIC "-//W3C//DTD SVG 1.1//EN"
 "http://www.w3.org/Graphics/SVG/1.1/DTD/svg11.dtd">
<!-- Generated by graphviz version 12.2.0 (20241103.1931)
 -->
<!-- Pages: 1 -->
<svg width="282pt" height="720pt"
 viewBox="0.00 0.00 281.62 719.50" xmlns="http://www.w3.org/2000/svg" xmlns:xlink="http://www.w3.org/1999/xlink">
<g id="graph0" class="graph" transform="scale(1 1) rotate(0) translate(4 715.5)">
<polygon fill="white" stroke="none" points="-4,4 -4,-715.5 277.62,-715.5 277.62,4 -4,4"/>
<!-- Start -->
<g id="node1" class="node">
<title>Start</title>
<ellipse fill="lightgrey" stroke="black" cx="153.38" cy="-693.5" rx="96.39" ry="18"/>
<text text-anchor="middle" x="153.38" y="-688.45" font-family="Times,serif" font-size="14.00">Start Opportunity Scan</text>
</g>
<!-- FetchPrices -->
<g id="node2" class="node">
<title>FetchPrices</title>
<polygon fill="lightblue" stroke="black" points="213.5,-638.5 93.25,-638.5 93.25,-597.5 213.5,-597.5 213.5,-638.5"/>
<text text-anchor="middle" x="153.38" y="-621.2" font-family="Times,serif" font-size="14.00">Fetch Token Prices</text>
<text text-anchor="middle" x="153.38" y="-604.7" font-family="Times,serif" font-size="14.00">from Uniswap API</text>
</g>
<!-- Start&#45;&gt;FetchPrices -->
<g id="edge1" class="edge">
<title>Start&#45;&gt;FetchPrices</title>
<path fill="none" stroke="black" d="M153.38,-675.08C153.38,-667.7 153.38,-658.85 153.38,-650.4"/>
<polygon fill="black" stroke="black" points="156.88,-650.4 153.38,-640.4 149.88,-650.4 156.88,-650.4"/>
</g>
<!-- IdentifyOpportunity -->
<g id="node3" class="node">
<title>IdentifyOpportunity</title>
<polygon fill="lightyellow" stroke="black" points="153.38,-560.5 39.88,-519.5 153.37,-478.5 266.88,-519.5 153.38,-560.5"/>
<text text-anchor="middle" x="153.38" y="-522.7" font-family="Times,serif" font-size="14.00">Identify Arbitrage</text>
<text text-anchor="middle" x="153.38" y="-506.2" font-family="Times,serif" font-size="14.00">Opportunities</text>
</g>
<!-- FetchPrices&#45;&gt;IdentifyOpportunity -->
<g id="edge2" class="edge">
<title>FetchPrices&#45;&gt;IdentifyOpportunity</title>
<path fill="none" stroke="black" d="M153.38,-597.01C153.38,-589.63 153.38,-580.89 153.38,-572.01"/>
<polygon fill="black" stroke="black" points="156.88,-572.29 153.38,-562.29 149.88,-572.29 156.88,-572.29"/>
</g>
<!-- InitiateFlashLoan -->
<g id="node4" class="node">
<title>InitiateFlashLoan</title>
<polygon fill="lightgreen" stroke="black" points="163.75,-426 45,-426 45,-385 163.75,-385 163.75,-426"/>
<text text-anchor="middle" x="104.38" y="-408.7" font-family="Times,serif" font-size="14.00">Initiate Flash Loan</text>
<text text-anchor="middle" x="104.38" y="-392.2" font-family="Times,serif" font-size="14.00">from AAVE</text>
</g>
<!-- IdentifyOpportunity&#45;&gt;InitiateFlashLoan -->
<g id="edge3" class="edge">
<title>IdentifyOpportunity&#45;&gt;InitiateFlashLoan</title>
<path fill="none" stroke="black" d="M138.14,-483.68C131.56,-468.63 123.93,-451.2 117.59,-436.71"/>
<polygon fill="black" stroke="black" points="120.86,-435.44 113.64,-427.68 114.44,-438.24 120.86,-435.44"/>
<text text-anchor="middle" x="154.03" y="-447.2" font-family="Times,serif" font-size="14.00">Profitable</text>
</g>
<!-- End -->
<g id="node9" class="node">
<title>End</title>
<ellipse fill="lightgrey" stroke="black" cx="150.38" cy="-18" rx="56.47" ry="18"/>
<text text-anchor="middle" x="150.38" y="-12.95" font-family="Times,serif" font-size="14.00">End Process</text>
</g>
<!-- IdentifyOpportunity&#45;&gt;End -->
<g id="edge4" class="edge">
<title>IdentifyOpportunity&#45;&gt;End</title>
<path fill="none" stroke="black" stroke-dasharray="5,2" d="M173.36,-485.45C184.59,-463.79 196.38,-434.41 196.38,-406.5 196.38,-406.5 196.38,-406.5 196.38,-92.5 196.38,-74.4 186.23,-57.08 175.46,-43.81"/>
<polygon fill="black" stroke="black" points="178.24,-41.68 169.02,-36.45 172.97,-46.28 178.24,-41.68"/>
<text text-anchor="middle" x="235" y="-244.45" font-family="Times,serif" font-size="14.00">Not Profitable</text>
</g>
<!-- FirstSwap -->
<g id="node5" class="node">
<title>FirstSwap</title>
<polygon fill="lightblue" stroke="black" points="166,-348 6.75,-348 6.75,-307 166,-307 166,-348"/>
<text text-anchor="middle" x="86.38" y="-330.7" font-family="Times,serif" font-size="14.00">Swap Token A to Token B</text>
<text text-anchor="middle" x="86.38" y="-314.2" font-family="Times,serif" font-size="14.00">on Uniswap</text>
</g>
<!-- InitiateFlashLoan&#45;&gt;FirstSwap -->
<g id="edge5" class="edge">
<title>InitiateFlashLoan&#45;&gt;FirstSwap</title>
<path fill="none" stroke="black" d="M99.65,-384.53C97.83,-376.85 95.7,-367.89 93.7,-359.42"/>
<polygon fill="black" stroke="black" points="97.13,-358.73 91.42,-349.81 90.32,-360.35 97.13,-358.73"/>
</g>
<!-- SecondSwap -->
<g id="node6" class="node">
<title>SecondSwap</title>
<polygon fill="lightblue" stroke="black" points="160.75,-270 0,-270 0,-229 160.75,-229 160.75,-270"/>
<text text-anchor="middle" x="80.38" y="-252.7" font-family="Times,serif" font-size="14.00">Swap Token B to Token C</text>
<text text-anchor="middle" x="80.38" y="-236.2" font-family="Times,serif" font-size="14.00">on Uniswap</text>
</g>
<!-- FirstSwap&#45;&gt;SecondSwap -->
<g id="edge6" class="edge">
<title>FirstSwap&#45;&gt;SecondSwap</title>
<path fill="none" stroke="black" d="M84.8,-306.53C84.2,-298.94 83.5,-290.1 82.84,-281.71"/>
<polygon fill="black" stroke="black" points="86.34,-281.54 82.06,-271.84 79.36,-282.09 86.34,-281.54"/>
</g>
<!-- ThirdSwap -->
<g id="node7" class="node">
<title>ThirdSwap</title>
<polygon fill="lightblue" stroke="black" points="166.75,-192 6,-192 6,-151 166.75,-151 166.75,-192"/>
<text text-anchor="middle" x="86.38" y="-174.7" font-family="Times,serif" font-size="14.00">Swap Token C to Token A</text>
<text text-anchor="middle" x="86.38" y="-158.2" font-family="Times,serif" font-size="14.00">on Uniswap</text>
</g>
<!-- SecondSwap&#45;&gt;ThirdSwap -->
<g id="edge7" class="edge">
<title>SecondSwap&#45;&gt;ThirdSwap</title>
<path fill="none" stroke="black" d="M81.95,-228.53C82.55,-220.94 83.25,-212.1 83.91,-203.71"/>
<polygon fill="black" stroke="black" points="87.39,-204.09 84.69,-193.84 80.41,-203.54 87.39,-204.09"/>
</g>
<!-- RepayLoan -->
<g id="node8" class="node">
<title>RepayLoan</title>
<polygon fill="lightgreen" stroke="black" points="161.88,-114 46.88,-114 46.88,-73 161.88,-73 161.88,-114"/>
<text text-anchor="middle" x="104.38" y="-96.7" font-family="Times,serif" font-size="14.00">Repay Flash Loan</text>
<text text-anchor="middle" x="104.38" y="-80.2" font-family="Times,serif" font-size="14.00">and Retain Profit</text>
</g>
<!-- ThirdSwap&#45;&gt;RepayLoan -->
<g id="edge8" class="edge">
<title>ThirdSwap&#45;&gt;RepayLoan</title>
<path fill="none" stroke="black" d="M91.1,-150.53C92.92,-142.85 95.05,-133.89 97.05,-125.42"/>
<polygon fill="black" stroke="black" points="100.43,-126.35 99.33,-115.81 93.62,-124.73 100.43,-126.35"/>
</g>
<!-- RepayLoan&#45;&gt;End -->
<g id="edge9" class="edge">
<title>RepayLoan&#45;&gt;End</title>
<path fill="none" stroke="black" d="M116.7,-72.8C121.96,-64.4 128.18,-54.47 133.83,-45.44"/>
<polygon fill="black" stroke="black" points="136.75,-47.38 139.08,-37.04 130.81,-43.66 136.75,-47.38"/>
</g>
</g>
</svg>
