<?xml version="1.0" encoding="UTF-8" standalone="no"?>
<!DOCTYPE svg PUBLIC "-//W3C//DTD SVG 1.1//EN"
 "http://www.w3.org/Graphics/SVG/1.1/DTD/svg11.dtd">
<!-- Generated by graphviz version 12.2.0 (20241103.1931)
 -->
<!-- Pages: 1 -->
<svg width="343pt" height="434pt"
 viewBox="0.00 0.00 342.88 434.00" xmlns="http://www.w3.org/2000/svg" xmlns:xlink="http://www.w3.org/1999/xlink">
<g id="graph0" class="graph" transform="scale(1 1) rotate(0) translate(4 430)">
<polygon fill="white" stroke="none" points="-4,4 -4,-430 338.88,-430 338.88,4 -4,4"/>
<!-- PythonController -->
<g id="node1" class="node">
<title>PythonController</title>
<polygon fill="lightblue" stroke="black" points="288.5,-426 101.5,-426 101.5,-385 288.5,-385 288.5,-426"/>
<text text-anchor="middle" x="195" y="-408.7" font-family="Times,serif" font-size="14.00">Python Controller</text>
<text text-anchor="middle" x="195" y="-392.2" font-family="Times,serif" font-size="14.00">(Continuous Opportunity Scan)</text>
</g>
<!-- ExecutionEngine -->
<g id="node2" class="node">
<title>ExecutionEngine</title>
<polygon fill="lightblue" stroke="black" points="206.88,-346.5 13.12,-346.5 13.12,-310.5 206.88,-310.5 206.88,-346.5"/>
<text text-anchor="middle" x="110" y="-323.45" font-family="Times,serif" font-size="14.00">Execution &amp; Monitoring Engine</text>
</g>
<!-- PythonController&#45;&gt;ExecutionEngine -->
<g id="edge1" class="edge">
<title>PythonController&#45;&gt;ExecutionEngine</title>
<path fill="none" stroke="black" d="M172.67,-384.79C162.11,-375.48 149.39,-364.26 138.18,-354.36"/>
<polygon fill="black" stroke="black" points="140.53,-351.77 130.72,-347.78 135.9,-357.02 140.53,-351.77"/>
</g>
<!-- DataSources -->
<g id="node5" class="node">
<title>DataSources</title>
<polygon fill="lightyellow" stroke="black" points="334.88,-349 225.12,-349 225.12,-308 334.88,-308 334.88,-349"/>
<text text-anchor="middle" x="280" y="-331.7" font-family="Times,serif" font-size="14.00">Data Sources</text>
<text text-anchor="middle" x="280" y="-315.2" font-family="Times,serif" font-size="14.00">(DEX APIs, etc.)</text>
</g>
<!-- PythonController&#45;&gt;DataSources -->
<g id="edge2" class="edge">
<title>PythonController&#45;&gt;DataSources</title>
<path fill="none" stroke="black" d="M217.33,-384.79C227.02,-376.25 238.52,-366.1 249.01,-356.84"/>
<polygon fill="black" stroke="black" points="251.2,-359.58 256.39,-350.34 246.57,-354.33 251.2,-359.58"/>
</g>
<!-- FlashLoanProvider -->
<g id="node3" class="node">
<title>FlashLoanProvider</title>
<polygon fill="lightyellow" stroke="black" points="127.5,-272 0.5,-272 0.5,-231 127.5,-231 127.5,-272"/>
<text text-anchor="middle" x="64" y="-254.7" font-family="Times,serif" font-size="14.00">Flash Loan Provider</text>
<text text-anchor="middle" x="64" y="-238.2" font-family="Times,serif" font-size="14.00">(Lending Pool)</text>
</g>
<!-- ExecutionEngine&#45;&gt;FlashLoanProvider -->
<g id="edge3" class="edge">
<title>ExecutionEngine&#45;&gt;FlashLoanProvider</title>
<path fill="none" stroke="black" d="M99.33,-310.1C94.21,-301.75 87.93,-291.52 82.09,-282"/>
<polygon fill="black" stroke="black" points="85.24,-280.44 77.03,-273.74 79.27,-284.1 85.24,-280.44"/>
</g>
<!-- SmartContract -->
<g id="node4" class="node">
<title>SmartContract</title>
<polygon fill="lightgreen" stroke="black" points="172,-195 48,-195 48,-154 172,-154 172,-195"/>
<text text-anchor="middle" x="110" y="-177.7" font-family="Times,serif" font-size="14.00">Smart Contract</text>
<text text-anchor="middle" x="110" y="-161.2" font-family="Times,serif" font-size="14.00">(Deployed on BSC)</text>
</g>
<!-- ExecutionEngine&#45;&gt;SmartContract -->
<g id="edge4" class="edge">
<title>ExecutionEngine&#45;&gt;SmartContract</title>
<path fill="none" stroke="black" d="M120.91,-310.27C126.96,-299.67 133.87,-285.57 137,-272 141.09,-254.24 141.09,-248.76 137,-231 135.01,-222.36 131.49,-213.51 127.63,-205.48"/>
<polygon fill="black" stroke="black" points="130.86,-204.12 123.16,-196.84 124.64,-207.33 130.86,-204.12"/>
</g>
<!-- FlashLoanProvider&#45;&gt;SmartContract -->
<g id="edge5" class="edge">
<title>FlashLoanProvider&#45;&gt;SmartContract</title>
<path fill="none" stroke="black" d="M76.09,-230.79C80.91,-222.93 86.56,-213.71 91.86,-205.08"/>
<polygon fill="black" stroke="black" points="94.8,-206.98 97.04,-196.62 88.83,-203.32 94.8,-206.98"/>
</g>
<!-- ProfitCollection -->
<g id="node6" class="node">
<title>ProfitCollection</title>
<polygon fill="lightcoral" stroke="black" points="192.25,-118 27.75,-118 27.75,-77 192.25,-77 192.25,-118"/>
<text text-anchor="middle" x="110" y="-100.7" font-family="Times,serif" font-size="14.00">Profit Collection</text>
<text text-anchor="middle" x="110" y="-84.2" font-family="Times,serif" font-size="14.00">(Funds Returned to Wallet)</text>
</g>
<!-- SmartContract&#45;&gt;ProfitCollection -->
<g id="edge6" class="edge">
<title>SmartContract&#45;&gt;ProfitCollection</title>
<path fill="none" stroke="black" d="M110,-153.79C110,-146.45 110,-137.91 110,-129.78"/>
<polygon fill="black" stroke="black" points="113.5,-129.85 110,-119.85 106.5,-129.85 113.5,-129.85"/>
</g>
<!-- Wallet -->
<g id="node7" class="node">
<title>Wallet</title>
<polygon fill="lightyellow" stroke="black" points="220,-41 0,-41 0,0 220,0 220,-41"/>
<text text-anchor="middle" x="110" y="-23.7" font-family="Times,serif" font-size="14.00">Wallet</text>
<text text-anchor="middle" x="110" y="-7.2" font-family="Times,serif" font-size="14.00">(For Funding &amp; Transaction Signing)</text>
</g>
<!-- ProfitCollection&#45;&gt;Wallet -->
<g id="edge7" class="edge">
<title>ProfitCollection&#45;&gt;Wallet</title>
<path fill="none" stroke="black" d="M110,-76.79C110,-69.45 110,-60.91 110,-52.78"/>
<polygon fill="black" stroke="black" points="113.5,-52.85 110,-42.85 106.5,-52.85 113.5,-52.85"/>
</g>
</g>
</svg>
