<?xml version="1.0" encoding="UTF-8" standalone="no"?>
<!DOCTYPE svg PUBLIC "-//W3C//DTD SVG 1.1//EN"
 "http://www.w3.org/Graphics/SVG/1.1/DTD/svg11.dtd">
<!-- Generated by graphviz version 12.2.0 (20241103.1931)
 -->
<!-- Pages: 1 -->
<svg width="291pt" height="203pt"
 viewBox="0.00 0.00 291.12 203.00" xmlns="http://www.w3.org/2000/svg" xmlns:xlink="http://www.w3.org/1999/xlink">
<g id="graph0" class="graph" transform="scale(1 1) rotate(0) translate(4 199)">
<polygon fill="white" stroke="none" points="-4,4 -4,-199 287.12,-199 287.12,4 -4,4"/>
<!-- PythonController -->
<g id="node1" class="node">
<title>PythonController</title>
<polygon fill="lightblue" stroke="black" points="258.75,-195 71.75,-195 71.75,-154 258.75,-154 258.75,-195"/>
<text text-anchor="middle" x="165.25" y="-177.7" font-family="Times,serif" font-size="14.00">Python Controller</text>
<text text-anchor="middle" x="165.25" y="-161.2" font-family="Times,serif" font-size="14.00">(Continuous Opportunity Scan)</text>
</g>
<!-- SmartContracts -->
<g id="node2" class="node">
<title>SmartContracts</title>
<polygon fill="lightgreen" stroke="black" points="155.5,-115.5 51,-115.5 51,-79.5 155.5,-79.5 155.5,-115.5"/>
<text text-anchor="middle" x="103.25" y="-92.45" font-family="Times,serif" font-size="14.00">Smart Contracts</text>
</g>
<!-- PythonController&#45;&gt;SmartContracts -->
<g id="edge1" class="edge">
<title>PythonController&#45;&gt;SmartContracts</title>
<path fill="none" stroke="black" d="M148.96,-153.79C141.56,-144.85 132.72,-134.14 124.78,-124.55"/>
<polygon fill="black" stroke="black" points="127.57,-122.42 118.5,-116.94 122.17,-126.88 127.57,-122.42"/>
</g>
<!-- DataSources -->
<g id="node3" class="node">
<title>DataSources</title>
<polygon fill="lightblue" stroke="black" points="283.12,-118 173.38,-118 173.38,-77 283.12,-77 283.12,-118"/>
<text text-anchor="middle" x="228.25" y="-100.7" font-family="Times,serif" font-size="14.00">Data Sources</text>
<text text-anchor="middle" x="228.25" y="-84.2" font-family="Times,serif" font-size="14.00">(DEX APIs, etc.)</text>
</g>
<!-- PythonController&#45;&gt;DataSources -->
<g id="edge2" class="edge">
<title>PythonController&#45;&gt;DataSources</title>
<path fill="none" stroke="black" d="M181.8,-153.79C188.69,-145.59 196.83,-135.91 204.34,-126.96"/>
<polygon fill="black" stroke="black" points="206.86,-129.4 210.62,-119.49 201.5,-124.9 206.86,-129.4"/>
</g>
<!-- DEXA -->
<g id="node4" class="node">
<title>DEXA</title>
<polygon fill="lightyellow" stroke="black" points="56.5,-38.5 0,-38.5 0,-2.5 56.5,-2.5 56.5,-38.5"/>
<text text-anchor="middle" x="28.25" y="-15.45" font-family="Times,serif" font-size="14.00">DEX A</text>
</g>
<!-- SmartContracts&#45;&gt;DEXA -->
<g id="edge4" class="edge">
<title>SmartContracts&#45;&gt;DEXA</title>
<path fill="none" stroke="black" d="M85.85,-79.1C76.29,-69.54 64.26,-57.51 53.66,-46.91"/>
<polygon fill="black" stroke="black" points="56.17,-44.47 46.62,-39.87 51.22,-49.42 56.17,-44.47"/>
</g>
<!-- DEXB -->
<g id="node5" class="node">
<title>DEXB</title>
<polygon fill="lightyellow" stroke="black" points="131.5,-38.5 75,-38.5 75,-2.5 131.5,-2.5 131.5,-38.5"/>
<text text-anchor="middle" x="103.25" y="-15.45" font-family="Times,serif" font-size="14.00">DEX B</text>
</g>
<!-- SmartContracts&#45;&gt;DEXB -->
<g id="edge5" class="edge">
<title>SmartContracts&#45;&gt;DEXB</title>
<path fill="none" stroke="black" d="M103.25,-79.1C103.25,-70.49 103.25,-59.87 103.25,-50.1"/>
<polygon fill="black" stroke="black" points="106.75,-50.31 103.25,-40.31 99.75,-50.31 106.75,-50.31"/>
</g>
<!-- FlashLoanProvider -->
<g id="node6" class="node">
<title>FlashLoanProvider</title>
<polygon fill="lightyellow" stroke="black" points="276.75,-41 149.75,-41 149.75,0 276.75,0 276.75,-41"/>
<text text-anchor="middle" x="213.25" y="-23.7" font-family="Times,serif" font-size="14.00">Flash Loan Provider</text>
<text text-anchor="middle" x="213.25" y="-7.2" font-family="Times,serif" font-size="14.00">(Lending Pool)</text>
</g>
<!-- SmartContracts&#45;&gt;FlashLoanProvider -->
<g id="edge3" class="edge">
<title>SmartContracts&#45;&gt;FlashLoanProvider</title>
<path fill="none" stroke="black" d="M128.76,-79.1C142.43,-69.79 159.54,-58.12 174.79,-47.73"/>
<polygon fill="black" stroke="black" points="176.45,-50.83 182.74,-42.3 172.5,-45.05 176.45,-50.83"/>
</g>
</g>
</svg>
