<?xml version="1.0" encoding="UTF-8" standalone="no"?>
<!DOCTYPE svg PUBLIC "-//W3C//DTD SVG 1.1//EN"
 "http://www.w3.org/Graphics/SVG/1.1/DTD/svg11.dtd">
<!-- Generated by graphviz version 12.2.0 (20241103.1931)
 -->
<!-- Pages: 1 -->
<svg width="269pt" height="203pt"
 viewBox="0.00 0.00 268.88 203.00" xmlns="http://www.w3.org/2000/svg" xmlns:xlink="http://www.w3.org/1999/xlink">
<g id="graph0" class="graph" transform="scale(1 1) rotate(0) translate(4 199)">
<polygon fill="white" stroke="none" points="-4,4 -4,-199 264.88,-199 264.88,4 -4,4"/>
<!-- Controller -->
<g id="node1" class="node">
<title>Controller</title>
<polygon fill="lightblue" stroke="black" points="236.5,-195 49.5,-195 49.5,-154 236.5,-154 236.5,-195"/>
<text text-anchor="middle" x="143" y="-177.7" font-family="Times,serif" font-size="14.00">Controller</text>
<text text-anchor="middle" x="143" y="-161.2" font-family="Times,serif" font-size="14.00">(Continuous Opportunity Scan)</text>
</g>
<!-- SmartContracts -->
<g id="node2" class="node">
<title>SmartContracts</title>
<polygon fill="lightgreen" stroke="black" points="133.25,-115.5 28.75,-115.5 28.75,-79.5 133.25,-79.5 133.25,-115.5"/>
<text text-anchor="middle" x="81" y="-92.45" font-family="Times,serif" font-size="14.00">Smart Contracts</text>
</g>
<!-- Controller&#45;&gt;SmartContracts -->
<g id="edge1" class="edge">
<title>Controller&#45;&gt;SmartContracts</title>
<path fill="none" stroke="black" d="M126.71,-153.79C119.31,-144.85 110.47,-134.14 102.53,-124.55"/>
<polygon fill="black" stroke="black" points="105.32,-122.42 96.25,-116.94 99.92,-126.88 105.32,-122.42"/>
</g>
<!-- DataSources -->
<g id="node3" class="node">
<title>DataSources</title>
<polygon fill="lightblue" stroke="black" points="260.88,-118 151.12,-118 151.12,-77 260.88,-77 260.88,-118"/>
<text text-anchor="middle" x="206" y="-100.7" font-family="Times,serif" font-size="14.00">Data Sources</text>
<text text-anchor="middle" x="206" y="-84.2" font-family="Times,serif" font-size="14.00">(DEX APIs, etc.)</text>
</g>
<!-- Controller&#45;&gt;DataSources -->
<g id="edge2" class="edge">
<title>Controller&#45;&gt;DataSources</title>
<path fill="none" stroke="black" d="M159.55,-153.79C166.44,-145.59 174.58,-135.91 182.09,-126.96"/>
<polygon fill="black" stroke="black" points="184.61,-129.4 188.37,-119.49 179.25,-124.9 184.61,-129.4"/>
</g>
<!-- DEX -->
<g id="node4" class="node">
<title>DEX</title>
<polygon fill="lightyellow" stroke="black" points="54,-38.5 0,-38.5 0,-2.5 54,-2.5 54,-38.5"/>
<text text-anchor="middle" x="27" y="-15.45" font-family="Times,serif" font-size="14.00">DEX</text>
</g>
<!-- SmartContracts&#45;&gt;DEX -->
<g id="edge4" class="edge">
<title>SmartContracts&#45;&gt;DEX</title>
<path fill="none" stroke="black" d="M68.48,-79.1C61.8,-69.83 53.44,-58.22 45.98,-47.86"/>
<polygon fill="black" stroke="black" points="49.02,-46.1 40.34,-40.03 43.34,-50.19 49.02,-46.1"/>
</g>
<!-- FlashLoanProvider -->
<g id="node5" class="node">
<title>FlashLoanProvider</title>
<polygon fill="lightyellow" stroke="black" points="199.5,-41 72.5,-41 72.5,0 199.5,0 199.5,-41"/>
<text text-anchor="middle" x="136" y="-23.7" font-family="Times,serif" font-size="14.00">Flash Loan Provider</text>
<text text-anchor="middle" x="136" y="-7.2" font-family="Times,serif" font-size="14.00">(Lending Pool)</text>
</g>
<!-- SmartContracts&#45;&gt;FlashLoanProvider -->
<g id="edge3" class="edge">
<title>SmartContracts&#45;&gt;FlashLoanProvider</title>
<path fill="none" stroke="black" d="M93.76,-79.1C99.94,-70.67 107.55,-60.3 114.59,-50.7"/>
<polygon fill="black" stroke="black" points="117.38,-52.81 120.47,-42.67 111.74,-48.67 117.38,-52.81"/>
</g>
</g>
</svg>
